<mxfile host="app.diagrams.net" agent="Mozilla/5.0 (Windows NT 10.0; Win64; x64; rv:140.0) Gecko/20100101 Firefox/140.0" version="28.0.4">
  <diagram name="Page-1" id="74fgIfp0fjRWuUudOZ1E">
    <mxGraphModel grid="1" page="1" gridSize="10" guides="1" tooltips="1" connect="1" arrows="1" fold="1" pageScale="1" pageWidth="827" pageHeight="1169" math="0" shadow="0">
      <root>
        <mxCell id="0" />
        <mxCell id="1" parent="0" />
        <mxCell id="UhcoehoEXA9iPaGHAj1A-32" style="edgeStyle=orthogonalEdgeStyle;rounded=0;orthogonalLoop=1;jettySize=auto;html=1;exitX=0;exitY=0.25;exitDx=0;exitDy=0;entryX=0;entryY=0.75;entryDx=0;entryDy=0;" edge="1" parent="1" source="UhcoehoEXA9iPaGHAj1A-1" target="UhcoehoEXA9iPaGHAj1A-8">
          <mxGeometry relative="1" as="geometry" />
        </mxCell>
        <mxCell id="UhcoehoEXA9iPaGHAj1A-1" value="MASTER_1" style="rounded=0;whiteSpace=wrap;html=1;" vertex="1" parent="1">
          <mxGeometry x="80" y="40" width="160" height="110" as="geometry" />
        </mxCell>
        <mxCell id="UhcoehoEXA9iPaGHAj1A-33" style="edgeStyle=orthogonalEdgeStyle;rounded=0;orthogonalLoop=1;jettySize=auto;html=1;exitX=0;exitY=0.25;exitDx=0;exitDy=0;entryX=0;entryY=0.5;entryDx=0;entryDy=0;" edge="1" parent="1" source="UhcoehoEXA9iPaGHAj1A-2" target="UhcoehoEXA9iPaGHAj1A-8">
          <mxGeometry relative="1" as="geometry">
            <Array as="points">
              <mxPoint x="40" y="208" />
              <mxPoint x="40" y="-130" />
            </Array>
          </mxGeometry>
        </mxCell>
        <mxCell id="UhcoehoEXA9iPaGHAj1A-50" style="edgeStyle=orthogonalEdgeStyle;rounded=0;orthogonalLoop=1;jettySize=auto;html=1;exitX=1;exitY=0.25;exitDx=0;exitDy=0;entryX=-0.001;entryY=0.315;entryDx=0;entryDy=0;entryPerimeter=0;" edge="1" parent="1" source="UhcoehoEXA9iPaGHAj1A-2" target="UhcoehoEXA9iPaGHAj1A-9">
          <mxGeometry relative="1" as="geometry">
            <Array as="points">
              <mxPoint x="290" y="207" />
              <mxPoint x="290" y="140" />
              <mxPoint x="560" y="140" />
            </Array>
          </mxGeometry>
        </mxCell>
        <mxCell id="UhcoehoEXA9iPaGHAj1A-2" value="MASTER_2" style="rounded=0;whiteSpace=wrap;html=1;" vertex="1" parent="1">
          <mxGeometry x="80" y="180" width="160" height="110" as="geometry" />
        </mxCell>
        <mxCell id="UhcoehoEXA9iPaGHAj1A-34" style="edgeStyle=orthogonalEdgeStyle;rounded=0;orthogonalLoop=1;jettySize=auto;html=1;exitX=0;exitY=0.25;exitDx=0;exitDy=0;entryX=0;entryY=0.25;entryDx=0;entryDy=0;" edge="1" parent="1" source="UhcoehoEXA9iPaGHAj1A-6" target="UhcoehoEXA9iPaGHAj1A-8">
          <mxGeometry relative="1" as="geometry">
            <Array as="points">
              <mxPoint x="20" y="348" />
              <mxPoint x="20" y="-145" />
            </Array>
          </mxGeometry>
        </mxCell>
        <mxCell id="UhcoehoEXA9iPaGHAj1A-51" style="edgeStyle=orthogonalEdgeStyle;rounded=0;orthogonalLoop=1;jettySize=auto;html=1;exitX=1;exitY=0.25;exitDx=0;exitDy=0;entryX=0;entryY=0.5;entryDx=0;entryDy=0;" edge="1" parent="1" source="UhcoehoEXA9iPaGHAj1A-6" target="UhcoehoEXA9iPaGHAj1A-9">
          <mxGeometry relative="1" as="geometry">
            <Array as="points">
              <mxPoint x="330" y="347" />
              <mxPoint x="330" y="175" />
            </Array>
          </mxGeometry>
        </mxCell>
        <mxCell id="UhcoehoEXA9iPaGHAj1A-6" value="MASTER_3" style="rounded=0;whiteSpace=wrap;html=1;" vertex="1" parent="1">
          <mxGeometry x="80" y="320" width="160" height="110" as="geometry" />
        </mxCell>
        <mxCell id="UhcoehoEXA9iPaGHAj1A-36" style="edgeStyle=orthogonalEdgeStyle;rounded=0;orthogonalLoop=1;jettySize=auto;html=1;exitX=0;exitY=0.25;exitDx=0;exitDy=0;entryX=0;entryY=0;entryDx=0;entryDy=0;" edge="1" parent="1" source="UhcoehoEXA9iPaGHAj1A-7" target="UhcoehoEXA9iPaGHAj1A-8">
          <mxGeometry relative="1" as="geometry">
            <Array as="points">
              <mxPoint y="488" />
              <mxPoint y="-160" />
            </Array>
          </mxGeometry>
        </mxCell>
        <mxCell id="UhcoehoEXA9iPaGHAj1A-52" style="edgeStyle=orthogonalEdgeStyle;rounded=0;orthogonalLoop=1;jettySize=auto;html=1;exitX=1;exitY=0.25;exitDx=0;exitDy=0;entryX=0;entryY=0.75;entryDx=0;entryDy=0;" edge="1" parent="1" source="UhcoehoEXA9iPaGHAj1A-7" target="UhcoehoEXA9iPaGHAj1A-9">
          <mxGeometry relative="1" as="geometry">
            <Array as="points">
              <mxPoint x="360" y="487" />
              <mxPoint x="360" y="223" />
            </Array>
          </mxGeometry>
        </mxCell>
        <mxCell id="UhcoehoEXA9iPaGHAj1A-7" value="MASTER_4" style="rounded=0;whiteSpace=wrap;html=1;" vertex="1" parent="1">
          <mxGeometry x="80" y="460" width="160" height="110" as="geometry" />
        </mxCell>
        <mxCell id="UhcoehoEXA9iPaGHAj1A-30" style="edgeStyle=orthogonalEdgeStyle;rounded=0;orthogonalLoop=1;jettySize=auto;html=1;exitX=0.25;exitY=1;exitDx=0;exitDy=0;entryX=0.25;entryY=0;entryDx=0;entryDy=0;" edge="1" parent="1" source="UhcoehoEXA9iPaGHAj1A-8" target="UhcoehoEXA9iPaGHAj1A-9">
          <mxGeometry relative="1" as="geometry" />
        </mxCell>
        <mxCell id="UhcoehoEXA9iPaGHAj1A-41" style="edgeStyle=orthogonalEdgeStyle;rounded=0;orthogonalLoop=1;jettySize=auto;html=1;exitX=0.25;exitY=0;exitDx=0;exitDy=0;entryX=0;entryY=0.5;entryDx=0;entryDy=0;" edge="1" parent="1" source="UhcoehoEXA9iPaGHAj1A-8" target="UhcoehoEXA9iPaGHAj1A-1">
          <mxGeometry relative="1" as="geometry">
            <Array as="points">
              <mxPoint x="640" y="-180" />
              <mxPoint x="-20" y="-180" />
              <mxPoint x="-20" y="95" />
            </Array>
          </mxGeometry>
        </mxCell>
        <mxCell id="UhcoehoEXA9iPaGHAj1A-42" style="edgeStyle=orthogonalEdgeStyle;rounded=0;orthogonalLoop=1;jettySize=auto;html=1;exitX=0.5;exitY=0;exitDx=0;exitDy=0;entryX=0;entryY=0.5;entryDx=0;entryDy=0;" edge="1" parent="1" source="UhcoehoEXA9iPaGHAj1A-8" target="UhcoehoEXA9iPaGHAj1A-2">
          <mxGeometry relative="1" as="geometry">
            <Array as="points">
              <mxPoint x="670" y="-190" />
              <mxPoint x="-40" y="-190" />
              <mxPoint x="-40" y="235" />
            </Array>
          </mxGeometry>
        </mxCell>
        <mxCell id="UhcoehoEXA9iPaGHAj1A-43" style="edgeStyle=orthogonalEdgeStyle;rounded=0;orthogonalLoop=1;jettySize=auto;html=1;exitX=0.75;exitY=0;exitDx=0;exitDy=0;entryX=0;entryY=0.5;entryDx=0;entryDy=0;" edge="1" parent="1" source="UhcoehoEXA9iPaGHAj1A-8" target="UhcoehoEXA9iPaGHAj1A-6">
          <mxGeometry relative="1" as="geometry">
            <Array as="points">
              <mxPoint x="700" y="-200" />
              <mxPoint x="-60" y="-200" />
              <mxPoint x="-60" y="375" />
            </Array>
          </mxGeometry>
        </mxCell>
        <mxCell id="UhcoehoEXA9iPaGHAj1A-44" style="edgeStyle=orthogonalEdgeStyle;rounded=0;orthogonalLoop=1;jettySize=auto;html=1;exitX=1;exitY=0;exitDx=0;exitDy=0;entryX=0;entryY=0.5;entryDx=0;entryDy=0;" edge="1" parent="1" source="UhcoehoEXA9iPaGHAj1A-8" target="UhcoehoEXA9iPaGHAj1A-7">
          <mxGeometry relative="1" as="geometry">
            <Array as="points">
              <mxPoint x="730" y="-210" />
              <mxPoint x="-80" y="-210" />
              <mxPoint x="-80" y="515" />
            </Array>
          </mxGeometry>
        </mxCell>
        <mxCell id="UhcoehoEXA9iPaGHAj1A-8" value="ARBITER" style="rounded=0;whiteSpace=wrap;html=1;" vertex="1" parent="1">
          <mxGeometry x="610" y="-160" width="120" height="60" as="geometry" />
        </mxCell>
        <mxCell id="UhcoehoEXA9iPaGHAj1A-57" style="edgeStyle=orthogonalEdgeStyle;rounded=0;orthogonalLoop=1;jettySize=auto;html=1;exitX=0.75;exitY=0;exitDx=0;exitDy=0;entryX=0;entryY=0.75;entryDx=0;entryDy=0;" edge="1" parent="1" source="UhcoehoEXA9iPaGHAj1A-9" target="UhcoehoEXA9iPaGHAj1A-16">
          <mxGeometry relative="1" as="geometry" />
        </mxCell>
        <mxCell id="UhcoehoEXA9iPaGHAj1A-59" style="edgeStyle=orthogonalEdgeStyle;rounded=0;orthogonalLoop=1;jettySize=auto;html=1;exitX=1;exitY=0.25;exitDx=0;exitDy=0;entryX=0;entryY=0.25;entryDx=0;entryDy=0;" edge="1" parent="1" source="UhcoehoEXA9iPaGHAj1A-9" target="UhcoehoEXA9iPaGHAj1A-12">
          <mxGeometry relative="1" as="geometry" />
        </mxCell>
        <mxCell id="UhcoehoEXA9iPaGHAj1A-60" style="edgeStyle=orthogonalEdgeStyle;rounded=0;orthogonalLoop=1;jettySize=auto;html=1;exitX=1;exitY=0.5;exitDx=0;exitDy=0;entryX=0;entryY=0.25;entryDx=0;entryDy=0;" edge="1" parent="1" source="UhcoehoEXA9iPaGHAj1A-9" target="UhcoehoEXA9iPaGHAj1A-13">
          <mxGeometry relative="1" as="geometry" />
        </mxCell>
        <mxCell id="UhcoehoEXA9iPaGHAj1A-61" style="edgeStyle=orthogonalEdgeStyle;rounded=0;orthogonalLoop=1;jettySize=auto;html=1;exitX=1;exitY=0.75;exitDx=0;exitDy=0;entryX=0;entryY=0.25;entryDx=0;entryDy=0;" edge="1" parent="1" source="UhcoehoEXA9iPaGHAj1A-9" target="UhcoehoEXA9iPaGHAj1A-14">
          <mxGeometry relative="1" as="geometry" />
        </mxCell>
        <mxCell id="UhcoehoEXA9iPaGHAj1A-62" style="edgeStyle=orthogonalEdgeStyle;rounded=0;orthogonalLoop=1;jettySize=auto;html=1;exitX=1;exitY=1;exitDx=0;exitDy=0;entryX=0;entryY=0.25;entryDx=0;entryDy=0;" edge="1" parent="1" source="UhcoehoEXA9iPaGHAj1A-9" target="UhcoehoEXA9iPaGHAj1A-15">
          <mxGeometry relative="1" as="geometry">
            <Array as="points">
              <mxPoint x="1010" y="270" />
              <mxPoint x="1010" y="487" />
            </Array>
          </mxGeometry>
        </mxCell>
        <mxCell id="UhcoehoEXA9iPaGHAj1A-9" value="&lt;div&gt;MASTER-TO-SLAVE&lt;/div&gt;&lt;div&gt;LOGIC&lt;/div&gt;" style="rounded=0;whiteSpace=wrap;html=1;" vertex="1" parent="1">
          <mxGeometry x="560" y="80" width="320" height="190" as="geometry" />
        </mxCell>
        <mxCell id="UhcoehoEXA9iPaGHAj1A-83" style="edgeStyle=orthogonalEdgeStyle;rounded=0;orthogonalLoop=1;jettySize=auto;html=1;exitX=0;exitY=0.25;exitDx=0;exitDy=0;entryX=1;entryY=0.5;entryDx=0;entryDy=0;" edge="1" parent="1" source="UhcoehoEXA9iPaGHAj1A-10" target="UhcoehoEXA9iPaGHAj1A-1">
          <mxGeometry relative="1" as="geometry">
            <Array as="points">
              <mxPoint x="350" y="387" />
              <mxPoint x="350" y="95" />
            </Array>
          </mxGeometry>
        </mxCell>
        <mxCell id="UhcoehoEXA9iPaGHAj1A-84" style="edgeStyle=orthogonalEdgeStyle;rounded=0;orthogonalLoop=1;jettySize=auto;html=1;exitX=0;exitY=0.5;exitDx=0;exitDy=0;entryX=1;entryY=0.5;entryDx=0;entryDy=0;" edge="1" parent="1" source="UhcoehoEXA9iPaGHAj1A-10" target="UhcoehoEXA9iPaGHAj1A-2">
          <mxGeometry relative="1" as="geometry">
            <Array as="points">
              <mxPoint x="340" y="435" />
              <mxPoint x="340" y="235" />
            </Array>
          </mxGeometry>
        </mxCell>
        <mxCell id="UhcoehoEXA9iPaGHAj1A-85" style="edgeStyle=orthogonalEdgeStyle;rounded=0;orthogonalLoop=1;jettySize=auto;html=1;exitX=0;exitY=0.75;exitDx=0;exitDy=0;entryX=1;entryY=0.5;entryDx=0;entryDy=0;" edge="1" parent="1" source="UhcoehoEXA9iPaGHAj1A-10" target="UhcoehoEXA9iPaGHAj1A-6">
          <mxGeometry relative="1" as="geometry">
            <Array as="points">
              <mxPoint x="320" y="482" />
              <mxPoint x="320" y="375" />
            </Array>
          </mxGeometry>
        </mxCell>
        <mxCell id="UhcoehoEXA9iPaGHAj1A-86" style="edgeStyle=orthogonalEdgeStyle;rounded=0;orthogonalLoop=1;jettySize=auto;html=1;exitX=0;exitY=1;exitDx=0;exitDy=0;entryX=1;entryY=0.75;entryDx=0;entryDy=0;" edge="1" parent="1" source="UhcoehoEXA9iPaGHAj1A-10" target="UhcoehoEXA9iPaGHAj1A-7">
          <mxGeometry relative="1" as="geometry">
            <Array as="points">
              <mxPoint x="370" y="530" />
              <mxPoint x="370" y="542" />
            </Array>
          </mxGeometry>
        </mxCell>
        <mxCell id="UhcoehoEXA9iPaGHAj1A-10" value="&lt;div&gt;SLAVE-TO-MASTER&lt;/div&gt;&lt;div&gt;LOGIC&lt;/div&gt;" style="rounded=0;whiteSpace=wrap;html=1;" vertex="1" parent="1">
          <mxGeometry x="560" y="340" width="320" height="190" as="geometry" />
        </mxCell>
        <mxCell id="UhcoehoEXA9iPaGHAj1A-11" value="HREADY GENERATOR" style="rounded=0;whiteSpace=wrap;html=1;" vertex="1" parent="1">
          <mxGeometry x="620" y="710" width="230" height="100" as="geometry" />
        </mxCell>
        <mxCell id="UhcoehoEXA9iPaGHAj1A-17" style="edgeStyle=orthogonalEdgeStyle;rounded=0;orthogonalLoop=1;jettySize=auto;html=1;exitX=1;exitY=0.75;exitDx=0;exitDy=0;entryX=1;entryY=0.25;entryDx=0;entryDy=0;" edge="1" parent="1" source="UhcoehoEXA9iPaGHAj1A-12" target="UhcoehoEXA9iPaGHAj1A-11">
          <mxGeometry relative="1" as="geometry" />
        </mxCell>
        <mxCell id="UhcoehoEXA9iPaGHAj1A-75" style="edgeStyle=orthogonalEdgeStyle;rounded=0;orthogonalLoop=1;jettySize=auto;html=1;exitX=0;exitY=0.75;exitDx=0;exitDy=0;entryX=1;entryY=0.5;entryDx=0;entryDy=0;" edge="1" parent="1" source="UhcoehoEXA9iPaGHAj1A-12" target="UhcoehoEXA9iPaGHAj1A-10">
          <mxGeometry relative="1" as="geometry">
            <Array as="points">
              <mxPoint x="1000" y="122" />
              <mxPoint x="1000" y="435" />
            </Array>
          </mxGeometry>
        </mxCell>
        <mxCell id="UhcoehoEXA9iPaGHAj1A-12" value="SLAVE_1" style="rounded=0;whiteSpace=wrap;html=1;" vertex="1" parent="1">
          <mxGeometry x="1190" y="40" width="160" height="110" as="geometry" />
        </mxCell>
        <mxCell id="UhcoehoEXA9iPaGHAj1A-18" style="edgeStyle=orthogonalEdgeStyle;rounded=0;orthogonalLoop=1;jettySize=auto;html=1;exitX=1;exitY=0.75;exitDx=0;exitDy=0;entryX=1;entryY=0.5;entryDx=0;entryDy=0;" edge="1" parent="1" source="UhcoehoEXA9iPaGHAj1A-13" target="UhcoehoEXA9iPaGHAj1A-11">
          <mxGeometry relative="1" as="geometry">
            <Array as="points">
              <mxPoint x="1390" y="263" />
              <mxPoint x="1390" y="760" />
            </Array>
          </mxGeometry>
        </mxCell>
        <mxCell id="UhcoehoEXA9iPaGHAj1A-13" value="SLAVE_2" style="rounded=0;whiteSpace=wrap;html=1;" vertex="1" parent="1">
          <mxGeometry x="1190" y="180" width="160" height="110" as="geometry" />
        </mxCell>
        <mxCell id="UhcoehoEXA9iPaGHAj1A-19" style="edgeStyle=orthogonalEdgeStyle;rounded=0;orthogonalLoop=1;jettySize=auto;html=1;exitX=1;exitY=0.75;exitDx=0;exitDy=0;entryX=1;entryY=0.75;entryDx=0;entryDy=0;" edge="1" parent="1" source="UhcoehoEXA9iPaGHAj1A-14" target="UhcoehoEXA9iPaGHAj1A-11">
          <mxGeometry relative="1" as="geometry">
            <Array as="points">
              <mxPoint x="1410" y="403" />
              <mxPoint x="1410" y="785" />
            </Array>
          </mxGeometry>
        </mxCell>
        <mxCell id="UhcoehoEXA9iPaGHAj1A-14" value="SLAVE_3" style="rounded=0;whiteSpace=wrap;html=1;" vertex="1" parent="1">
          <mxGeometry x="1190" y="320" width="160" height="110" as="geometry" />
        </mxCell>
        <mxCell id="UhcoehoEXA9iPaGHAj1A-20" style="edgeStyle=orthogonalEdgeStyle;rounded=0;orthogonalLoop=1;jettySize=auto;html=1;exitX=1;exitY=0.75;exitDx=0;exitDy=0;entryX=1;entryY=1;entryDx=0;entryDy=0;" edge="1" parent="1" source="UhcoehoEXA9iPaGHAj1A-15" target="UhcoehoEXA9iPaGHAj1A-11">
          <mxGeometry relative="1" as="geometry">
            <Array as="points">
              <mxPoint x="1430" y="543" />
              <mxPoint x="1430" y="810" />
            </Array>
          </mxGeometry>
        </mxCell>
        <mxCell id="UhcoehoEXA9iPaGHAj1A-15" value="SLAVE_4" style="rounded=0;whiteSpace=wrap;html=1;" vertex="1" parent="1">
          <mxGeometry x="1190" y="460" width="160" height="110" as="geometry" />
        </mxCell>
        <mxCell id="UhcoehoEXA9iPaGHAj1A-28" style="edgeStyle=orthogonalEdgeStyle;rounded=0;orthogonalLoop=1;jettySize=auto;html=1;exitX=0.25;exitY=1;exitDx=0;exitDy=0;entryX=1;entryY=0.25;entryDx=0;entryDy=0;" edge="1" parent="1" source="UhcoehoEXA9iPaGHAj1A-16" target="UhcoehoEXA9iPaGHAj1A-10">
          <mxGeometry relative="1" as="geometry">
            <Array as="points">
              <mxPoint x="900" y="-30" />
              <mxPoint x="960" y="-30" />
              <mxPoint x="960" y="387" />
            </Array>
          </mxGeometry>
        </mxCell>
        <mxCell id="UhcoehoEXA9iPaGHAj1A-67" style="edgeStyle=orthogonalEdgeStyle;rounded=0;orthogonalLoop=1;jettySize=auto;html=1;exitX=1;exitY=0.75;exitDx=0;exitDy=0;entryX=0;entryY=0.5;entryDx=0;entryDy=0;" edge="1" parent="1" source="UhcoehoEXA9iPaGHAj1A-16" target="UhcoehoEXA9iPaGHAj1A-12">
          <mxGeometry relative="1" as="geometry">
            <Array as="points">
              <mxPoint x="1120" y="-75" />
              <mxPoint x="1120" y="95" />
            </Array>
          </mxGeometry>
        </mxCell>
        <mxCell id="UhcoehoEXA9iPaGHAj1A-68" style="edgeStyle=orthogonalEdgeStyle;rounded=0;orthogonalLoop=1;jettySize=auto;html=1;exitX=1;exitY=0.5;exitDx=0;exitDy=0;entryX=0;entryY=0.5;entryDx=0;entryDy=0;" edge="1" parent="1" source="UhcoehoEXA9iPaGHAj1A-16" target="UhcoehoEXA9iPaGHAj1A-13">
          <mxGeometry relative="1" as="geometry">
            <Array as="points">
              <mxPoint x="1110" y="-90" />
              <mxPoint x="1110" y="235" />
            </Array>
          </mxGeometry>
        </mxCell>
        <mxCell id="UhcoehoEXA9iPaGHAj1A-69" style="edgeStyle=orthogonalEdgeStyle;rounded=0;orthogonalLoop=1;jettySize=auto;html=1;exitX=1;exitY=0.25;exitDx=0;exitDy=0;entryX=0;entryY=0.5;entryDx=0;entryDy=0;" edge="1" parent="1" source="UhcoehoEXA9iPaGHAj1A-16" target="UhcoehoEXA9iPaGHAj1A-14">
          <mxGeometry relative="1" as="geometry">
            <Array as="points">
              <mxPoint x="1100" y="-105" />
              <mxPoint x="1100" y="375" />
            </Array>
          </mxGeometry>
        </mxCell>
        <mxCell id="UhcoehoEXA9iPaGHAj1A-70" style="edgeStyle=orthogonalEdgeStyle;rounded=0;orthogonalLoop=1;jettySize=auto;html=1;exitX=1;exitY=0;exitDx=0;exitDy=0;entryX=0;entryY=0.5;entryDx=0;entryDy=0;" edge="1" parent="1" source="UhcoehoEXA9iPaGHAj1A-16" target="UhcoehoEXA9iPaGHAj1A-15">
          <mxGeometry relative="1" as="geometry">
            <Array as="points">
              <mxPoint x="1090" y="-120" />
              <mxPoint x="1090" y="515" />
            </Array>
          </mxGeometry>
        </mxCell>
        <mxCell id="UhcoehoEXA9iPaGHAj1A-16" value="DECODER" style="rounded=0;whiteSpace=wrap;html=1;" vertex="1" parent="1">
          <mxGeometry x="870" y="-120" width="120" height="60" as="geometry" />
        </mxCell>
        <mxCell id="UhcoehoEXA9iPaGHAj1A-21" value="HREADYOUT_4" style="text;html=1;align=center;verticalAlign=middle;resizable=0;points=[];autosize=1;strokeColor=none;fillColor=none;fontSize=9;" vertex="1" parent="1">
          <mxGeometry x="852" y="793" width="90" height="20" as="geometry" />
        </mxCell>
        <mxCell id="UhcoehoEXA9iPaGHAj1A-22" value="HREADYOUT_3" style="text;html=1;align=center;verticalAlign=middle;resizable=0;points=[];autosize=1;strokeColor=none;fillColor=none;fontSize=9;" vertex="1" parent="1">
          <mxGeometry x="853" y="767" width="90" height="20" as="geometry" />
        </mxCell>
        <mxCell id="UhcoehoEXA9iPaGHAj1A-23" value="HREADYOUT_2" style="text;html=1;align=center;verticalAlign=middle;resizable=0;points=[];autosize=1;strokeColor=none;fillColor=none;fontSize=9;" vertex="1" parent="1">
          <mxGeometry x="850" y="739" width="90" height="20" as="geometry" />
        </mxCell>
        <mxCell id="UhcoehoEXA9iPaGHAj1A-24" value="HREADYOUT_1" style="text;html=1;align=center;verticalAlign=middle;resizable=0;points=[];autosize=1;strokeColor=none;fillColor=none;fontSize=9;" vertex="1" parent="1">
          <mxGeometry x="850" y="710" width="90" height="20" as="geometry" />
        </mxCell>
        <mxCell id="UhcoehoEXA9iPaGHAj1A-26" style="edgeStyle=orthogonalEdgeStyle;rounded=0;orthogonalLoop=1;jettySize=auto;html=1;exitX=0.25;exitY=0;exitDx=0;exitDy=0;entryX=0.368;entryY=1.012;entryDx=0;entryDy=0;entryPerimeter=0;" edge="1" parent="1" source="UhcoehoEXA9iPaGHAj1A-11" target="UhcoehoEXA9iPaGHAj1A-10">
          <mxGeometry relative="1" as="geometry" />
        </mxCell>
        <mxCell id="UhcoehoEXA9iPaGHAj1A-27" value="&lt;font style=&quot;font-size: 9px;&quot;&gt;HREADY&lt;/font&gt;" style="text;html=1;align=center;verticalAlign=middle;resizable=0;points=[];autosize=1;strokeColor=none;fillColor=none;" vertex="1" parent="1">
          <mxGeometry x="672" y="523" width="60" height="30" as="geometry" />
        </mxCell>
        <mxCell id="UhcoehoEXA9iPaGHAj1A-29" value="SLAVE_SELECT" style="text;html=1;align=center;verticalAlign=middle;resizable=0;points=[];autosize=1;strokeColor=none;fillColor=none;" vertex="1" parent="1">
          <mxGeometry x="874" y="363" width="110" height="30" as="geometry" />
        </mxCell>
        <mxCell id="UhcoehoEXA9iPaGHAj1A-31" value="HMASTER" style="text;html=1;align=center;verticalAlign=middle;resizable=0;points=[];autosize=1;strokeColor=none;fillColor=none;" vertex="1" parent="1">
          <mxGeometry x="636" y="53" width="80" height="30" as="geometry" />
        </mxCell>
        <mxCell id="UhcoehoEXA9iPaGHAj1A-37" value="HREQ_4" style="text;html=1;align=center;verticalAlign=middle;resizable=0;points=[];autosize=1;strokeColor=none;fillColor=none;" vertex="1" parent="1">
          <mxGeometry x="524" y="-183" width="70" height="30" as="geometry" />
        </mxCell>
        <mxCell id="UhcoehoEXA9iPaGHAj1A-38" value="HREQ_3" style="text;html=1;align=center;verticalAlign=middle;resizable=0;points=[];autosize=1;strokeColor=none;fillColor=none;" vertex="1" parent="1">
          <mxGeometry x="524" y="-168" width="70" height="30" as="geometry" />
        </mxCell>
        <mxCell id="UhcoehoEXA9iPaGHAj1A-39" value="HREQ_2" style="text;html=1;align=center;verticalAlign=middle;resizable=0;points=[];autosize=1;strokeColor=none;fillColor=none;" vertex="1" parent="1">
          <mxGeometry x="524" y="-153" width="70" height="30" as="geometry" />
        </mxCell>
        <mxCell id="UhcoehoEXA9iPaGHAj1A-40" value="HREQ_1" style="text;html=1;align=center;verticalAlign=middle;resizable=0;points=[];autosize=1;strokeColor=none;fillColor=none;" vertex="1" parent="1">
          <mxGeometry x="524" y="-138" width="70" height="30" as="geometry" />
        </mxCell>
        <mxCell id="UhcoehoEXA9iPaGHAj1A-45" value="HGRANT_1" style="text;html=1;align=center;verticalAlign=middle;resizable=0;points=[];autosize=1;strokeColor=none;fillColor=none;" vertex="1" parent="1">
          <mxGeometry x="70" y="96" width="90" height="30" as="geometry" />
        </mxCell>
        <mxCell id="UhcoehoEXA9iPaGHAj1A-46" value="HGRANT_2" style="text;html=1;align=center;verticalAlign=middle;resizable=0;points=[];autosize=1;strokeColor=none;fillColor=none;" vertex="1" parent="1">
          <mxGeometry x="70" y="235" width="90" height="30" as="geometry" />
        </mxCell>
        <mxCell id="UhcoehoEXA9iPaGHAj1A-47" value="HGRANT_3" style="text;html=1;align=center;verticalAlign=middle;resizable=0;points=[];autosize=1;strokeColor=none;fillColor=none;" vertex="1" parent="1">
          <mxGeometry x="70" y="374" width="90" height="30" as="geometry" />
        </mxCell>
        <mxCell id="UhcoehoEXA9iPaGHAj1A-48" value="HGRANT_4" style="text;html=1;align=center;verticalAlign=middle;resizable=0;points=[];autosize=1;strokeColor=none;fillColor=none;" vertex="1" parent="1">
          <mxGeometry x="70" y="513" width="90" height="30" as="geometry" />
        </mxCell>
        <mxCell id="UhcoehoEXA9iPaGHAj1A-49" style="edgeStyle=orthogonalEdgeStyle;rounded=0;orthogonalLoop=1;jettySize=auto;html=1;exitX=1;exitY=0.25;exitDx=0;exitDy=0;entryX=-0.009;entryY=0.15;entryDx=0;entryDy=0;entryPerimeter=0;" edge="1" parent="1" source="UhcoehoEXA9iPaGHAj1A-1" target="UhcoehoEXA9iPaGHAj1A-9">
          <mxGeometry relative="1" as="geometry">
            <Array as="points">
              <mxPoint x="360" y="68" />
              <mxPoint x="360" y="109" />
            </Array>
          </mxGeometry>
        </mxCell>
        <mxCell id="UhcoehoEXA9iPaGHAj1A-53" value="ADDRESS &amp;amp;CONTROL SIGNALS" style="text;html=1;align=center;verticalAlign=middle;resizable=0;points=[];autosize=1;strokeColor=none;fillColor=none;" vertex="1" parent="1">
          <mxGeometry x="350" y="83" width="210" height="30" as="geometry" />
        </mxCell>
        <mxCell id="UhcoehoEXA9iPaGHAj1A-54" value="ADDRESS &amp;amp;CONTROL SIGNALS" style="text;html=1;align=center;verticalAlign=middle;resizable=0;points=[];autosize=1;strokeColor=none;fillColor=none;" vertex="1" parent="1">
          <mxGeometry x="350" y="115" width="210" height="30" as="geometry" />
        </mxCell>
        <mxCell id="UhcoehoEXA9iPaGHAj1A-55" value="ADDRESS &amp;amp;CONTROL SIGNALS" style="text;html=1;align=center;verticalAlign=middle;resizable=0;points=[];autosize=1;strokeColor=none;fillColor=none;" vertex="1" parent="1">
          <mxGeometry x="350" y="150" width="210" height="30" as="geometry" />
        </mxCell>
        <mxCell id="UhcoehoEXA9iPaGHAj1A-56" value="ADDRESS &amp;amp;CONTROL SIGNALS" style="text;html=1;align=center;verticalAlign=middle;resizable=0;points=[];autosize=1;strokeColor=none;fillColor=none;" vertex="1" parent="1">
          <mxGeometry x="350" y="196" width="210" height="30" as="geometry" />
        </mxCell>
        <mxCell id="UhcoehoEXA9iPaGHAj1A-58" value="HADDR" style="text;html=1;align=center;verticalAlign=middle;resizable=0;points=[];autosize=1;strokeColor=none;fillColor=none;" vertex="1" parent="1">
          <mxGeometry x="804" y="-100" width="70" height="30" as="geometry" />
        </mxCell>
        <mxCell id="UhcoehoEXA9iPaGHAj1A-63" value="ADDRESS &amp;amp;CONTROL SIGNALS OF SELECTED MASTER" style="text;html=1;align=center;verticalAlign=middle;resizable=0;points=[];autosize=1;strokeColor=none;fillColor=none;fontSize=9;" vertex="1" parent="1">
          <mxGeometry x="971" y="45" width="270" height="20" as="geometry" />
        </mxCell>
        <mxCell id="UhcoehoEXA9iPaGHAj1A-64" value="ADDRESS &amp;amp;CONTROL SIGNALS OF SELECTED MASTER" style="text;html=1;align=center;verticalAlign=middle;resizable=0;points=[];autosize=1;strokeColor=none;fillColor=none;fontSize=9;" vertex="1" parent="1">
          <mxGeometry x="1010" y="180" width="270" height="20" as="geometry" />
        </mxCell>
        <mxCell id="UhcoehoEXA9iPaGHAj1A-65" value="ADDRESS &amp;amp;CONTROL SIGNALS OF SELECTED MASTER" style="text;html=1;align=center;verticalAlign=middle;resizable=0;points=[];autosize=1;strokeColor=none;fillColor=none;fontSize=9;" vertex="1" parent="1">
          <mxGeometry x="990" y="330" width="270" height="20" as="geometry" />
        </mxCell>
        <mxCell id="UhcoehoEXA9iPaGHAj1A-66" value="ADDRESS &amp;amp;CONTROL SIGNALS OF SELECTED MASTER" style="text;html=1;align=center;verticalAlign=middle;resizable=0;points=[];autosize=1;strokeColor=none;fillColor=none;fontSize=9;" vertex="1" parent="1">
          <mxGeometry x="980" y="470" width="270" height="20" as="geometry" />
        </mxCell>
        <mxCell id="UhcoehoEXA9iPaGHAj1A-71" value="SLAVE_SELECT[0]" style="text;html=1;align=center;verticalAlign=middle;resizable=0;points=[];autosize=1;strokeColor=none;fillColor=none;fontSize=8;" vertex="1" parent="1">
          <mxGeometry x="1107" y="77" width="90" height="20" as="geometry" />
        </mxCell>
        <mxCell id="UhcoehoEXA9iPaGHAj1A-72" value="SLAVE_SELECT[1]" style="text;html=1;align=center;verticalAlign=middle;resizable=0;points=[];autosize=1;strokeColor=none;fillColor=none;fontSize=8;" vertex="1" parent="1">
          <mxGeometry x="1105" y="219" width="90" height="20" as="geometry" />
        </mxCell>
        <mxCell id="UhcoehoEXA9iPaGHAj1A-73" value="SLAVE_SELECT[2]" style="text;html=1;align=center;verticalAlign=middle;resizable=0;points=[];autosize=1;strokeColor=none;fillColor=none;fontSize=8;" vertex="1" parent="1">
          <mxGeometry x="1097" y="359" width="90" height="20" as="geometry" />
        </mxCell>
        <mxCell id="UhcoehoEXA9iPaGHAj1A-74" value="SLAVE_SELECT[3]" style="text;html=1;align=center;verticalAlign=middle;resizable=0;points=[];autosize=1;strokeColor=none;fillColor=none;fontSize=8;" vertex="1" parent="1">
          <mxGeometry x="1096" y="500" width="90" height="20" as="geometry" />
        </mxCell>
        <mxCell id="UhcoehoEXA9iPaGHAj1A-76" style="edgeStyle=orthogonalEdgeStyle;rounded=0;orthogonalLoop=1;jettySize=auto;html=1;exitX=0;exitY=0.75;exitDx=0;exitDy=0;entryX=1.004;entryY=0.645;entryDx=0;entryDy=0;entryPerimeter=0;" edge="1" parent="1" source="UhcoehoEXA9iPaGHAj1A-13" target="UhcoehoEXA9iPaGHAj1A-10">
          <mxGeometry relative="1" as="geometry">
            <Array as="points">
              <mxPoint x="990" y="262" />
              <mxPoint x="990" y="463" />
            </Array>
          </mxGeometry>
        </mxCell>
        <mxCell id="UhcoehoEXA9iPaGHAj1A-77" style="edgeStyle=orthogonalEdgeStyle;rounded=0;orthogonalLoop=1;jettySize=auto;html=1;exitX=0;exitY=0.75;exitDx=0;exitDy=0;entryX=1;entryY=0.803;entryDx=0;entryDy=0;entryPerimeter=0;" edge="1" parent="1" source="UhcoehoEXA9iPaGHAj1A-14" target="UhcoehoEXA9iPaGHAj1A-10">
          <mxGeometry relative="1" as="geometry" />
        </mxCell>
        <mxCell id="UhcoehoEXA9iPaGHAj1A-78" style="edgeStyle=orthogonalEdgeStyle;rounded=0;orthogonalLoop=1;jettySize=auto;html=1;exitX=0;exitY=0.75;exitDx=0;exitDy=0;entryX=1.004;entryY=0.923;entryDx=0;entryDy=0;entryPerimeter=0;" edge="1" parent="1" source="UhcoehoEXA9iPaGHAj1A-15" target="UhcoehoEXA9iPaGHAj1A-10">
          <mxGeometry relative="1" as="geometry" />
        </mxCell>
        <mxCell id="UhcoehoEXA9iPaGHAj1A-79" value="RESPONSE SIGNALS" style="text;html=1;align=center;verticalAlign=middle;resizable=0;points=[];autosize=1;strokeColor=none;fillColor=none;fontSize=9;" vertex="1" parent="1">
          <mxGeometry x="875" y="418" width="120" height="20" as="geometry" />
        </mxCell>
        <mxCell id="UhcoehoEXA9iPaGHAj1A-80" value="RESPONSE SIGNALS" style="text;html=1;align=center;verticalAlign=middle;resizable=0;points=[];autosize=1;strokeColor=none;fillColor=none;fontSize=9;" vertex="1" parent="1">
          <mxGeometry x="877" y="445" width="120" height="20" as="geometry" />
        </mxCell>
        <mxCell id="UhcoehoEXA9iPaGHAj1A-81" value="RESPONSE SIGNALS" style="text;html=1;align=center;verticalAlign=middle;resizable=0;points=[];autosize=1;strokeColor=none;fillColor=none;fontSize=9;" vertex="1" parent="1">
          <mxGeometry x="877" y="474" width="120" height="20" as="geometry" />
        </mxCell>
        <mxCell id="UhcoehoEXA9iPaGHAj1A-82" value="RESPONSE SIGNALS" style="text;html=1;align=center;verticalAlign=middle;resizable=0;points=[];autosize=1;strokeColor=none;fillColor=none;fontSize=9;" vertex="1" parent="1">
          <mxGeometry x="877" y="499" width="120" height="20" as="geometry" />
        </mxCell>
        <mxCell id="UhcoehoEXA9iPaGHAj1A-87" value="RESPONSE SIGNALS OF SELECTED SLAVE" style="text;html=1;align=center;verticalAlign=middle;resizable=0;points=[];autosize=1;strokeColor=none;fillColor=none;fontSize=9;" vertex="1" parent="1">
          <mxGeometry x="226" y="520" width="210" height="20" as="geometry" />
        </mxCell>
        <mxCell id="UhcoehoEXA9iPaGHAj1A-88" value="RESPONSE SIGNALS OF SELECTED SLAVE" style="text;html=1;align=center;verticalAlign=middle;resizable=0;points=[];autosize=1;strokeColor=none;fillColor=none;fontSize=9;" vertex="1" parent="1">
          <mxGeometry x="180" y="359" width="210" height="20" as="geometry" />
        </mxCell>
        <mxCell id="UhcoehoEXA9iPaGHAj1A-89" value="RESPONSE SIGNALS OF SELECTED SLAVE" style="text;html=1;align=center;verticalAlign=middle;resizable=0;points=[];autosize=1;strokeColor=none;fillColor=none;fontSize=9;" vertex="1" parent="1">
          <mxGeometry x="190" y="220" width="210" height="20" as="geometry" />
        </mxCell>
        <mxCell id="UhcoehoEXA9iPaGHAj1A-90" value="RESPONSE SIGNALS OF SELECTED SLAVE" style="text;html=1;align=center;verticalAlign=middle;resizable=0;points=[];autosize=1;strokeColor=none;fillColor=none;fontSize=9;" vertex="1" parent="1">
          <mxGeometry x="183" y="76" width="210" height="20" as="geometry" />
        </mxCell>
        <mxCell id="UhcoehoEXA9iPaGHAj1A-91" value="" style="rounded=0;whiteSpace=wrap;html=1;fillColor=none;dashed=1;strokeWidth=8;" vertex="1" parent="1">
          <mxGeometry x="440" y="-340" width="620" height="1280" as="geometry" />
        </mxCell>
        <mxCell id="UhcoehoEXA9iPaGHAj1A-92" value="&lt;font style=&quot;font-size: 43px;&quot;&gt;BUS INTERCONNECT&lt;/font&gt;" style="text;html=1;align=center;verticalAlign=middle;resizable=0;points=[];autosize=1;strokeColor=none;fillColor=none;" vertex="1" parent="1">
          <mxGeometry x="515" y="-432" width="470" height="70" as="geometry" />
        </mxCell>
      </root>
    </mxGraphModel>
  </diagram>
</mxfile>
